<?xml version="1.0" encoding="UTF-8"?>
<svg version="1.1" xmlns="http://www.w3.org/2000/svg" width="576" height="182">
<path d="M0 0 C188.76 0 377.52 0 572 0 C572 58.74 572 117.48 572 178 C383.24 178 194.48 178 0 178 C0 119.26 0 60.52 0 0 Z " fill="#23334E" transform="translate(2,2)"/>
<path d="M0 0 C1.2065625 0.495 1.2065625 0.495 2.4375 1 C2.7675 0.67 3.0975 0.34 3.4375 0 C6.10808851 -0.14115161 8.76182238 -0.04247107 11.4375 0 C11.53683715 5.83491118 11.60918936 11.66932337 11.65722656 17.50488281 C11.67726497 19.48739199 11.70450353 21.46984263 11.73925781 23.45214844 C11.78811954 26.31199641 11.81054673 29.17105881 11.828125 32.03125 C11.84877014 32.90865845 11.86941528 33.78606689 11.89068604 34.69006348 C11.89315193 41.54820975 10.23369457 46.82362108 5.65625 52.0234375 C5.0890625 52.46945313 4.521875 52.91546875 3.9375 53.375 C3.3703125 53.83648437 2.803125 54.29796875 2.21875 54.7734375 C-2.27997023 57.87124046 -6.10554136 58.68211983 -11.5625 58 C-15.24277942 56.86816804 -18.3564808 55.13734613 -21.5625 53 C-20.98905063 50.13275314 -20.7010485 49.1385485 -18.5625 47 C-15.62796739 47.36681658 -14.69812754 47.86437246 -12.5625 50 C-7.95343285 50.45335087 -5.66529166 50.67126449 -1.6875 48.25 C2.24030275 44.09115003 2.78357627 40.66733902 3.4375 35 C2.4475 35.495 1.4575 35.99 0.4375 36.5 C-4.34725494 38.51210017 -8.72180224 38.88377264 -13.671875 37.34375 C-18.84502778 35.08778864 -21.89068022 31.94229323 -24.5625 27 C-26.34718529 21.64594413 -26.60764547 15.20359806 -24.84375 9.796875 C-19.45879572 -0.19134666 -10.37689056 -2.91281139 0 0 Z " fill="#F3F4F5" transform="translate(485.5625,89)"/>
<path d="M0 0 C2.31 0 4.62 0 7 0 C7 18.48 7 36.96 7 56 C4.69 56 2.38 56 0 56 C0 55.34 0 54.68 0 54 C-0.99 54.495 -1.98 54.99 -3 55.5 C-8.49056878 57.82463597 -12.95770683 57.59860317 -18.625 55.9375 C-23.74474092 52.99838947 -26.87741387 49.39825218 -29.375 44.0625 C-30.71427295 37.50006253 -30.57908484 32.75279826 -27.34375 26.89453125 C-24.40585045 22.75243451 -20.82195802 19.60731934 -16 18 C-9.15236059 17.53575326 -7.16445575 18.31332909 0 21 C0 14.07 0 7.14 0 0 Z " fill="#F7F8F9" transform="translate(285,70)"/>
<path d="M0 0 C4.4308782 3.15274026 8.1888495 6.19140361 10.25 11.3125 C11.04342899 17.77064294 10.9302037 23.91904706 7.58984375 29.625 C4.34268333 33.71471808 0.37809581 36.33052421 -4.75 37.3125 C-10.61480324 37.69707726 -14.53472102 37.34684413 -19.75 34.3125 C-25.49741377 28.90924274 -27.8164903 24.93240273 -28.1875 17.0625 C-28.13806581 10.89146503 -26.0256708 7.59827877 -21.75 3.3125 C-15.84595939 -2.16982342 -7.37374849 -4.00150903 0 0 Z " fill="#F5F5F7" transform="translate(237.75,89.6875)"/>
<path d="M0 0 C3.12520861 2.52676441 5.40816931 5.26197762 7.9375 8.375 C9.113125 9.303125 9.113125 9.303125 10.3125 10.25 C12.66878444 12.15746836 14.46514747 14.02849869 16.4375 16.3125 C17.035625 17.00472656 17.63375 17.69695312 18.25 18.41015625 C18.806875 19.05855469 19.36375 19.70695312 19.9375 20.375 C23.72032868 24.72525298 26.37005534 25.98313883 31.9375 27.375 C33.47913175 30.4582635 33.23497535 32.98378099 32.9375 36.375 C31.375 38.375 31.375 38.375 28.9375 39.375 C25.4375 39.5625 25.4375 39.5625 21.9375 38.375 C20.1875 35 20.1875 35 19.28515625 32.8203125 C17.54595696 29.664548 15.19718388 27.34866559 12.625 24.875 C12.13926514 24.40779541 11.65353027 23.94059082 11.15307617 23.45922852 C10.67201416 22.99701904 10.19095215 22.53480957 9.6953125 22.05859375 C7.33596129 19.76273783 5.14514044 17.43087752 3 14.9375 C2.45214844 14.31101562 1.90429688 13.68453125 1.33984375 13.0390625 C0.19099733 11.67580742 -0.88474927 10.25125933 -1.9375 8.8125 C-5.40360916 6.46777909 -9.12407637 7.71378724 -13.0625 8.375 C-17.72112669 9.31287651 -22.32658735 10.41472981 -26.9375 11.5625 C-28.15953125 11.84158203 -29.3815625 12.12066406 -30.640625 12.40820312 C-31.80851562 12.70017578 -32.97640625 12.99214844 -34.1796875 13.29296875 C-35.23784668 13.54844482 -36.29600586 13.8039209 -37.38623047 14.06713867 C-41.64417858 16.14794765 -42.42918826 19.53590375 -43.90625 23.82519531 C-44.23109375 25.00227051 -44.23109375 25.00227051 -44.5625 26.203125 C-44.81 27.08613281 -45.0575 27.96914062 -45.3125 28.87890625 C-45.56 29.78511719 -45.8075 30.69132812 -46.0625 31.625 C-47.05847334 35.20946656 -48.05834414 38.79281703 -49.0625 42.375 C-49.32160156 43.30892578 -49.58070312 44.24285156 -49.84765625 45.20507812 C-50.10417969 46.10162109 -50.36070313 46.99816406 -50.625 47.921875 C-50.96724609 49.13375488 -50.96724609 49.13375488 -51.31640625 50.37011719 C-52.0625 52.375 -52.0625 52.375 -54.0625 54.375 C-56.625 54.5625 -56.625 54.5625 -59.0625 54.375 C-60.0625 53.375 -60.0625 53.375 -60.3125 51.3125 C-60.04817713 48.20670625 -59.07808057 45.82569449 -57.96289062 42.94116211 C-56.88731229 39.87570554 -56.03889818 36.7817779 -55.1953125 33.64453125 C-54.86660156 32.42958984 -54.53789063 31.21464844 -54.19921875 29.96289062 C-53.52232753 27.43696258 -52.85572284 24.90825646 -52.19921875 22.37695312 C-51.86792969 21.16587891 -51.53664063 19.95480469 -51.1953125 18.70703125 C-50.90543457 17.61108643 -50.61555664 16.5151416 -50.31689453 15.38598633 C-48.79237914 11.7266153 -47.13796427 9.86563711 -44.0625 7.375 C-41.14331055 6.1965332 -41.14331055 6.1965332 -37.94921875 5.42578125 C-36.78326172 5.13509766 -35.61730469 4.84441406 -34.41601562 4.54492188 C-33.20623047 4.26197266 -31.99644531 3.97902344 -30.75 3.6875 C-29.55181641 3.39294922 -28.35363281 3.09839844 -27.11914062 2.79492188 C-24.80174099 2.226744 -22.48245426 1.66619433 -20.16113281 1.11425781 C-17.56833034 0.49567872 -14.98448825 -0.14738497 -12.40234375 -0.80859375 C-7.4739526 -2.01331159 -4.55901042 -2.41906675 0 0 Z " fill="#45A7F9" transform="translate(82.0625,56.625)"/>
<path d="M0 0 C2.625 -0.1875 2.625 -0.1875 5 0 C6.10051778 4.05558612 5.82196131 6.72482733 4.70703125 10.75390625 C4.25553711 12.4080957 4.25553711 12.4080957 3.79492188 14.09570312 C3.47072266 15.23974609 3.14652344 16.38378906 2.8125 17.5625 C2.50763672 18.67947266 2.20277344 19.79644531 1.88867188 20.94726562 C0.95914076 24.3087775 -0.01309605 27.65492018 -1 31 C-1.31533691 32.11358887 -1.63067383 33.22717773 -1.95556641 34.37451172 C-2.2757373 35.43557129 -2.5959082 36.49663086 -2.92578125 37.58984375 C-3.34404175 39.00898071 -3.34404175 39.00898071 -3.77075195 40.45678711 C-5.87970093 44.82002871 -8.76958734 46.55669702 -13.25463867 48.17260742 C-14.4635376 48.48045166 -15.67243652 48.7882959 -16.91796875 49.10546875 C-17.57525467 49.27500565 -18.23254059 49.44454254 -18.90974426 49.61921692 C-20.29579271 49.973818 -21.68343378 50.32224546 -23.07250977 50.66479492 C-25.16773977 51.1826164 -27.25668426 51.72139914 -29.34570312 52.26367188 C-48.81789493 57.24118095 -48.81789493 57.24118095 -53.08300781 54.81518555 C-55.28672013 53.0441094 -57.10146556 51.09749276 -59 49 C-59.97142812 47.95978922 -60.94417842 46.92081223 -61.91796875 45.8828125 C-64.01320017 43.63551047 -66.09409914 41.37605983 -68.1640625 39.10546875 C-74.60677208 31.70350211 -74.60677208 31.70350211 -83 27 C-84.875 25.1875 -84.875 25.1875 -86 23 C-85.7434556 19.49389321 -84.9814066 17.9721099 -83 15 C-79.99553728 14.66617081 -77.89751345 14.47534736 -75 15 C-72.5285321 17.13057577 -71.96130134 19.10964619 -70.875 22.1875 C-68.70597091 27.55238578 -64.14409353 31.12728958 -60 35 C-55.27547771 39.61464968 -55.27547771 39.61464968 -53.6484375 41.890625 C-53.16632812 42.54546875 -52.68421875 43.2003125 -52.1875 43.875 C-51.76855469 44.49117187 -51.34960938 45.10734375 -50.91796875 45.7421875 C-47.7147986 47.84284084 -44.5529266 46.72065831 -41 46 C-39.40393921 45.6920752 -39.40393921 45.6920752 -37.77563477 45.37792969 C-34.06385213 44.62488047 -30.37796547 43.78856266 -26.6875 42.9375 C-25.41326172 42.67517578 -24.13902344 42.41285156 -22.82617188 42.14257812 C-15.67451407 40.68046544 -15.67451407 40.68046544 -10.8984375 35.6484375 C-10.56397646 34.10613102 -10.27008125 32.55487285 -10 31 C-9.35712879 28.72886598 -8.69803842 26.46229228 -8.02734375 24.19921875 C-7.14703405 21.05099253 -6.27170404 17.90149425 -5.40405273 14.74975586 C-4.88721011 12.87747862 -4.36362073 11.00706793 -3.83984375 9.13671875 C-3.38146118 7.47709106 -3.38146118 7.47709106 -2.91381836 5.78393555 C-2 3 -2 3 0 0 Z " fill="#45A8FB" transform="translate(117,103)"/>
<path d="M0 0 C2.04837849 1.89579048 3.4145101 3.67461481 5 6 C3.68 7.32 2.36 8.64 1 10 C-1.34895967 9.11914012 -3.61411883 8.21978449 -5.796875 6.9765625 C-10.83385304 4.13570689 -15.21493557 2.8861762 -21 4 C-23.69138543 5.44014926 -23.69138543 5.44014926 -25 8 C-25.58345476 11.04253508 -25.58345476 11.04253508 -25 14 C-20.97381922 19.36824105 -14.69312504 20.23583734 -8.54296875 21.8046875 C-3.22409308 23.59914831 1.03069775 26.15534896 4 31 C5.24266632 34.72799895 5.52902513 38.12782994 5 42 C2.10129344 47.58269411 -1.4204148 51.02657162 -7.3125 53.25 C-15.40929519 54.8968058 -23.29603149 54.19518531 -30.8125 50.6875 C-33.34401304 48.73461851 -35.12042176 46.57571833 -37 44 C-35.02 42.35 -33.04 40.7 -31 39 C-30.13375 39.78375 -29.2675 40.5675 -28.375 41.375 C-22.99641424 45.81107658 -17.78110341 46.53818281 -11 46 C-7.25452396 44.27032287 -7.25452396 44.27032287 -5 41 C-4.93049459 39.45976004 -4.91547643 37.91665012 -4.9375 36.375 C-4.94652344 35.55773437 -4.95554687 34.74046875 -4.96484375 33.8984375 C-4.97644531 33.27195313 -4.98804688 32.64546875 -5 32 C-8.52661018 30.49055595 -12.08393886 29.38712468 -15.77490234 28.3515625 C-23.76810189 26.06195036 -29.74391309 24.01980065 -34.5 16.6875 C-35.5596816 10.99171143 -34.97349026 6.54613159 -31.875 1.625 C-22.96587216 -6.50942107 -10.12015309 -6.105394 0 0 Z " fill="#F4F5F6" transform="translate(382,73)"/>
<path d="M0 0 C3.52182234 2.30082982 5.17084095 5.327493 6.69921875 9.1484375 C7.09367815 12.50134239 6.94921875 15.89740885 6.94921875 19.2734375 C-2.62078125 19.2734375 -12.19078125 19.2734375 -22.05078125 19.2734375 C-20.9067046 25.90796561 -20.9067046 25.90796561 -18.203125 27.69140625 C-14.46037342 28.70351149 -10.8904044 28.7619917 -7.05078125 28.2734375 C-5.36784205 27.30107263 -3.69634691 26.30779306 -2.05078125 25.2734375 C1.31027826 26.23374022 1.96055589 27.29044321 3.94921875 30.2734375 C-1.85261561 35.30169395 -5.4189209 36.64960144 -13.1953125 36.546875 C-18.30091255 36.05796665 -22.14401333 34.36565168 -25.6171875 30.5546875 C-30.37489298 24.15686133 -30.7823736 18.1177333 -30.05078125 10.2734375 C-28.14848993 4.44250107 -24.03560373 0.93167221 -18.80078125 -1.9765625 C-12.05274841 -3.81693509 -6.25908842 -3.08038906 0 0 Z " fill="#F6F7F8" transform="translate(331.05078125,90.7265625)"/>
<path d="M0 0 C2.96974533 2.05053844 4.63833444 3.79313335 6.625 6.8125 C7.07910156 10.1340332 7.07910156 10.1340332 7.015625 13.86328125 C7.00996521 14.52208786 7.00430542 15.18089447 6.99847412 15.85966492 C6.97621239 17.94887216 6.9260433 20.03631773 6.875 22.125 C6.85492144 23.54750114 6.83667304 24.97002937 6.8203125 26.39257812 C6.77638359 29.8664508 6.70743096 33.33930325 6.625 36.8125 C3.985 36.8125 1.345 36.8125 -1.375 36.8125 C-1.705 36.1525 -2.035 35.4925 -2.375 34.8125 C-3.220625 35.3075 -4.06625 35.8025 -4.9375 36.3125 C-9.9232827 38.48811427 -13.47057546 38.52199149 -18.5625 36.625 C-21.77137887 34.55705584 -23.48862398 33.1499345 -25.375 29.8125 C-26.13194646 25.9853221 -26.22269742 22.51510929 -24.45703125 18.96875 C-21.60860578 15.2077222 -18.8147397 13.97046096 -14.375 12.8125 C-10.9453125 12.6171875 -10.9453125 12.6171875 -7.5 12.6875 C-6.34757813 12.70554687 -5.19515625 12.72359375 -4.0078125 12.7421875 C-3.13898437 12.76539062 -2.27015625 12.78859375 -1.375 12.8125 C-2.035 10.8325 -2.695 8.8525 -3.375 6.8125 C-4.97832791 6.73128076 -6.58284026 6.67320866 -8.1875 6.625 C-9.52748047 6.57279297 -9.52748047 6.57279297 -10.89453125 6.51953125 C-13.79147515 6.86168998 -14.60055028 7.56643573 -16.375 9.8125 C-19.53615776 8.44266497 -20.3677092 7.8234362 -22.375 4.8125 C-15.24849285 -1.12625596 -9.07477465 -3.19297627 0 0 Z " fill="#F4F5F6" transform="translate(551.375,89.1875)"/>
<path d="M0 0 C2.70633666 1.79466816 4.72608499 3.76343237 6.84375 6.22265625 C4.86375 7.87265625 2.88375 9.52265625 0.84375 11.22265625 C0.286875 10.60390625 -0.27 9.98515625 -0.84375 9.34765625 C-5.56354367 5.01054855 -10.34730572 4.83182381 -16.5078125 4.98046875 C-21.92447456 5.47579773 -24.8941221 7.73533227 -28.40625 11.66015625 C-32.85253619 17.00287111 -33.65738094 21.12979126 -33.5390625 28.04296875 C-32.78484968 34.30755276 -30.08962903 39.2397034 -25.71875 43.72265625 C-20.47038354 46.79487076 -15.23815638 48.17757239 -9.15625 47.22265625 C-5.15810116 45.70636367 -1.70465053 43.58825661 1.84375 41.22265625 C4.31875 43.20265625 4.31875 43.20265625 6.84375 45.22265625 C5.52682884 49.17341972 3.77572549 50.00987151 0.2890625 52.078125 C-8.05138191 55.98187933 -16.59908871 55.80930011 -25.21875 53.03515625 C-31.92123584 50.32255884 -36.63841185 45.47659074 -40.15625 39.22265625 C-43.31488073 31.14933294 -43.51991832 21.98596273 -40.59375 13.78515625 C-37.10243728 6.36459612 -31.42998542 1.5115939 -24.03125 -1.89453125 C-16.04571057 -4.34661265 -7.42572421 -3.8652557 0 0 Z " fill="#F9FAFA" transform="translate(195.15625,71.77734375)"/>
<path d="M0 0 C3.73068114 1.64123096 5.30179307 3.67083296 7.03833008 7.41015625 C8.65189242 12.80803369 8.21566829 18.4211396 8.0625 24 C8.04445313 25.25167969 8.02640625 26.50335938 8.0078125 27.79296875 C7.96094512 30.86278242 7.8953431 33.93098174 7.8125 37 C5.1725 37 2.5325 37 -0.1875 37 C-0.5175 27.43 -0.8475 17.86 -1.1875 8 C-3.90642564 7.09369145 -5.80093987 6.77798422 -8.625 6.6875 C-9.38683594 6.65011719 -10.14867187 6.61273438 -10.93359375 6.57421875 C-14.12317863 7.17675732 -15.16674433 8.49349325 -17.1875 11 C-17.82578469 13.88873888 -17.82578469 13.88873888 -17.796875 17.078125 C-17.82910156 18.23828125 -17.86132812 19.3984375 -17.89453125 20.59375 C-17.91580078 22.40359375 -17.91580078 22.40359375 -17.9375 24.25 C-17.96714844 25.47203125 -17.99679687 26.6940625 -18.02734375 27.953125 C-18.09802402 30.96881644 -18.15073175 33.9837355 -18.1875 37 C-20.8275 37 -23.4675 37 -26.1875 37 C-26.1875 24.79 -26.1875 12.58 -26.1875 0 C-23.8775 0 -21.5675 0 -19.1875 0 C-18.8575 1.32 -18.5275 2.64 -18.1875 4 C-17.40375 3.360625 -16.62 2.72125 -15.8125 2.0625 C-10.78372684 -1.88867891 -6.05927576 -1.76681686 0 0 Z " fill="#F5F6F7" transform="translate(443.1875,89)"/>
<path d="M0 0 C2.68635892 2.14908714 4.08828105 3.6984369 5.18359375 6.984375 C5.61125332 15.82267287 5.61125332 15.82267287 3.18359375 19.984375 C1.03860068 22.31863216 -0.57425325 23.75807182 -3.74609375 24.3359375 C-8.19608468 24.5206541 -11.34038635 23.96382063 -14.81640625 20.984375 C-17.8449073 16.49383896 -18.77557333 12.2756044 -17.81640625 6.984375 C-16.20717128 3.88085042 -14.81293358 1.76736076 -12.06640625 -0.390625 C-7.89179943 -1.55023801 -3.86245521 -2.15965238 0 0 Z " fill="#263550" transform="translate(280.81640625,96.015625)"/>
<path d="M0 0 C3.4794963 1.36154203 4.70766749 2.59073448 6.875 5.625 C8.68998498 11.06995493 8.01144629 15.73628687 5.6875 20.9375 C3.43949293 23.68506419 1.31891079 24.72902378 -2.1484375 25.44140625 C-5.51224055 25.62434992 -7.99635855 25.61731103 -10.91796875 23.8203125 C-14.34801397 20.41470941 -15.45211583 17.29924504 -15.75 12.5 C-15.45222285 7.70247931 -14.35232686 4.58112038 -10.9140625 1.18359375 C-7.36253495 -1.01255492 -3.99275751 -0.79707544 0 0 Z " fill="#23324E" transform="translate(233,95)"/>
<path d="M0 0 C2.64 0 5.28 0 8 0 C8 19.14 8 38.28 8 58 C5.36 58 2.72 58 0 58 C0 38.86 0 19.72 0 0 Z " fill="#FBFBFC" transform="translate(508,68)"/>
<path d="M0 0 C5.5 3 5.5 3 7 6 C7.52567807 12.18682651 7.75299425 17.77261515 4 23 C1.08757351 25.37308825 -2.26500298 25.47060274 -5.96484375 25.39453125 C-9.61727597 24.68647817 -11.43783808 22.62465368 -14 20 C-15.84330721 16.31338558 -15.35620938 12.03279906 -15 8 C-12.07359833 1.12295608 -7.40104183 -1.32110728 0 0 Z " fill="#2D3C56" transform="translate(483,95)"/>
<path d="M0 0 C3.11933687 0.25994474 4.66628924 0.68986753 6.98339844 2.84326172 C9.88958726 7.39253793 10.82164967 12.09459461 12.015625 17.3203125 C12.27631775 18.41592499 12.5370105 19.51153748 12.80560303 20.64035034 C13.35280937 22.95034959 13.89371187 25.26185007 14.42871094 27.57470703 C15.2493103 31.12201853 16.0877115 34.664739 16.9296875 38.20703125 C17.4593685 40.45288111 17.98804899 42.69896722 18.515625 44.9453125 C18.76556213 46.00783234 19.01549927 47.07035217 19.27301025 48.16506958 C19.50034851 49.14974213 19.72768677 50.13441467 19.96191406 51.14892578 C20.2635849 52.44867844 20.2635849 52.44867844 20.5713501 53.77468872 C21 56 21 56 21 59 C18.1875 58.8125 18.1875 58.8125 15 58 C12.23970534 54.29686408 11.18210847 50.55892794 10.09765625 46.109375 C9.93490707 45.45138916 9.7721579 44.79340332 9.60447693 44.11547852 C9.08231231 41.9955566 8.57208182 39.87297822 8.0625 37.75 C7.70763428 36.29575115 7.3521642 34.84164965 6.99609375 33.38769531 C6.30098317 30.54224007 5.61104654 27.69561576 4.92626953 24.84765625 C4.1555994 21.64634857 3.37570442 18.44759938 2.58984375 15.25 C0 4.58348555 0 4.58348555 0 0 Z " fill="#45A8FA" transform="translate(56,72)"/>
<path d="M0 0 C3.74522532 0.50611153 5.67402613 0.98154582 8 4 C8.82682812 6.38021842 9.50917066 8.66329594 10.12109375 11.09765625 C10.30608429 11.80026581 10.49107483 12.50287537 10.68167114 13.22677612 C11.27757403 15.50273969 11.8580478 17.78229779 12.4375 20.0625 C12.83991475 21.61739802 13.24282843 23.172167 13.64624023 24.72680664 C21 53.21763951 21 53.21763951 21 59 C18.1875 58.8125 18.1875 58.8125 15 58 C11.34964508 53.48773124 10.43296581 47.70305188 9.08203125 42.1875 C8.81992355 41.14102295 8.55781586 40.0945459 8.2877655 39.01635742 C7.7367845 36.80844101 7.18985982 34.59950891 6.64672852 32.38964844 C5.81486715 29.00961824 4.96800607 25.63360755 4.11914062 22.2578125 C3.58504034 20.10959786 3.05180777 17.96116725 2.51953125 15.8125 C2.26645706 14.80405029 2.01338287 13.79560059 1.75263977 12.7565918 C1.52207382 11.81211182 1.29150787 10.86763184 1.05395508 9.89453125 C0.84982498 9.06800049 0.64569489 8.24146973 0.43537903 7.38989258 C-0.02237838 4.87716006 -0.07651173 2.54847677 0 0 Z " fill="#45A7FA" transform="translate(70,82)"/>
<path d="M0 0 C1.38960292 0.00414807 1.38960292 0.00414807 2.80727863 0.00837994 C4.40373974 0.00219395 4.40373974 0.00219395 6.03245258 -0.00411701 C7.78356342 0.01206173 7.78356342 0.01206173 9.57005024 0.02856731 C10.79943821 0.02812923 12.02882618 0.02769115 13.29546833 0.0272398 C16.66729955 0.02897311 20.03858133 0.04402948 23.41031528 0.06496167 C26.93370273 0.08370163 30.45709732 0.08547679 33.98052692 0.0890379 C40.65286597 0.09836628 47.32505775 0.12299069 53.99733192 0.15308636 C61.59336676 0.18660578 69.1894086 0.20311018 76.78549898 0.21817267 C92.41144058 0.24953963 108.03723522 0.30231543 123.66306782 0.36914349 C123.66306782 1.35914349 123.66306782 2.34914349 123.66306782 3.36914349 C81.09306782 3.36914349 38.52306782 3.36914349 -5.33693218 3.36914349 C-2.33693218 0.36914349 -2.33693218 0.36914349 0 0 Z " fill="#1B2330" transform="translate(450.336932182312,176.63085651397705)"/>
<path d="M0 0 C2.64 0 5.28 0 8 0 C8 12.21 8 24.42 8 37 C5.36 37 2.72 37 0 37 C0 24.79 0 12.58 0 0 Z " fill="#F8F8F9" transform="translate(398,89)"/>
<path d="M0 0 C2.8125 -0.25 2.8125 -0.25 6 0 C8.87499215 2.9609175 9.68684551 5.89810496 10.5703125 9.8671875 C10.82683594 11.00027344 11.08335938 12.13335937 11.34765625 13.30078125 C11.60417969 14.48027344 11.86070313 15.65976563 12.125 16.875 C12.38925781 18.04675781 12.65351562 19.21851563 12.92578125 20.42578125 C14.08348059 25.60310673 15.16206458 30.76021478 16 36 C12.6875 35.9375 12.6875 35.9375 9 35 C5.49790611 28.76412874 4.35369131 21.60954196 2.8125 14.6875 C2.40354492 12.89989258 2.40354492 12.89989258 1.98632812 11.07617188 C0 2.30944549 0 2.30944549 0 0 Z " fill="#45A6F9" transform="translate(46,75)"/>
<path d="M0 0 C2.31 0.33 4.62 0.66 7 1 C11.77643925 17.99128588 11.77643925 17.99128588 13.8125 25.8125 C14.04582031 26.70582031 14.27914062 27.59914062 14.51953125 28.51953125 C15.01429698 31.07380959 15.08852179 33.40491387 15 36 C12.69 35.67 10.38 35.34 8 35 C5.52581982 27.55113841 3.46237849 20.09347895 1.75 12.4375 C1.57500977 11.66422363 1.40001953 10.89094727 1.21972656 10.09423828 C0.46212515 6.62405799 0 3.56898626 0 0 Z " fill="#45A7FA" transform="translate(85,104)"/>
<path d="M0 0 C1.76923828 0.04060547 1.76923828 0.04060547 3.57421875 0.08203125 C4.47785156 0.11683594 5.38148438 0.15164062 6.3125 0.1875 C6.703125 6.14453125 6.703125 6.14453125 6.3125 8.1875 C4.18499351 10.37383156 2.83081676 11.11241673 -0.1953125 11.55078125 C-1.49082031 11.52564453 -1.49082031 11.52564453 -2.8125 11.5 C-3.68132813 11.49613281 -4.55015625 11.49226563 -5.4453125 11.48828125 C-7.6875 11.1875 -7.6875 11.1875 -9.6875 9.1875 C-10.236708 4.02494482 -10.236708 4.02494482 -8.5859375 1.5078125 C-5.75035955 -0.46425612 -3.40353691 -0.10109516 0 0 Z " fill="#313F59" transform="translate(543.6875,108.8125)"/>
<path d="M0 0 C3.28150021 1.27448466 3.95910413 1.93865619 6 5 C6 6.32 6 7.64 6 9 C-0.93 9 -7.86 9 -15 9 C-14 4 -14 4 -12 1.6875 C-7.98505087 -0.57090888 -4.52007963 -0.69539687 0 0 Z " fill="#2F3E58" transform="translate(324,95)"/>
<path d="M0 0 C2.92132617 2.92132617 3.13666541 6.45282106 3.9375 10.375 C4.28388309 12.00547933 4.63154454 13.63568759 4.98046875 15.265625 C5.1511084 16.06806641 5.32174805 16.87050781 5.49755859 17.69726562 C6.54421289 22.49417684 7.7699218 27.24742514 9 32 C8.01 32 7.02 32 6 32 C4.97434358 27.92741765 3.95941572 23.85235705 2.9543457 19.7746582 C2.61093089 18.38785931 2.26459487 17.0017804 1.9152832 15.61645508 C1.41368152 13.62503218 0.92264327 11.63125611 0.43359375 9.63671875 C0.13509521 8.43748779 -0.16340332 7.23825684 -0.47094727 6.00268555 C-1 3 -1 3 0 0 Z " fill="#1E3A5F" transform="translate(84,106)"/>
<path d="M0 0 C3.125 0.375 3.125 0.375 6 1 C6.6875 3.3125 6.6875 3.3125 7 6 C5.875 7.875 5.875 7.875 4 9 C-0.42105263 8.57894737 -0.42105263 8.57894737 -2 7 C-2.1875 4.5625 -2.1875 4.5625 -2 2 C-1.34 1.34 -0.68 0.68 0 0 Z " fill="#182E4E" transform="translate(36,120)"/>
<path d="M0 0 C1.53884929 2.82967892 2.43126064 5.39421917 3.0703125 8.546875 C3.33134766 9.81337891 3.33134766 9.81337891 3.59765625 11.10546875 C3.77167969 11.97816406 3.94570313 12.85085937 4.125 13.75 C4.30675781 14.63816406 4.48851562 15.52632812 4.67578125 16.44140625 C5.12222537 18.62663271 5.56344566 20.81278017 6 23 C5.34 23 4.68 23 4 23 C3.67 23.66 3.34 24.32 3 25 C2.32488828 22.29352533 1.65972659 19.58522815 1 16.875 C0.80921875 16.11445312 0.6184375 15.35390625 0.421875 14.5703125 C-2.08739099 4.17478198 -2.08739099 4.17478198 0 0 Z " fill="#1E3C62" transform="translate(57,80)"/>
<path d="M0 0 C0.6875 2.3125 0.6875 2.3125 1 5 C-0.1875 6.875 -0.1875 6.875 -2 8 C-4.97397616 7.72963853 -5.85446026 7.14553974 -8 5 C-7.75 2.4375 -7.75 2.4375 -7 0 C-4.3333581 -1.33332095 -2.83319697 -0.67102033 0 0 Z " fill="#1B2F4D" transform="translate(112,86)"/>
<path d="M0 0 C2.625 0.375 2.625 0.375 5 1 C6.125 5.75 6.125 5.75 5 8 C3.00045254 8.04254356 0.99958364 8.04080783 -1 8 C-2 7 -2 7 -2.1875 4.5625 C-2 2 -2 2 0 0 Z " fill="#F4F5F6" transform="translate(400,71)"/>
<path d="M0 0 C3.00803753 -0.33422639 5.10148102 -0.53829638 8 0 C10.0625 1.75 10.0625 1.75 11 4 C10.6875 6.25 10.6875 6.25 10 8 C10 7.01 10 6.02 10 5 C9.34 5 8.68 5 8 5 C8 4.34 8 3.68 8 3 C5.12635209 2.58253392 5.12635209 2.58253392 2 3 C0.21030974 5.42672567 0.21030974 5.42672567 -1 8 C-1.66 8 -2.32 8 -3 8 C-2.45276317 4.62537285 -1.9451 2.91765 0 0 Z " fill="#43A0F0" transform="translate(34,118)"/>
<path d="M0 0 C1.88391785 3.26545761 2.49287967 6.28111761 3 10 C2.01 10 1.02 10 0 10 C-1.125 2.25 -1.125 2.25 0 0 Z " fill="#234873" transform="translate(90,128)"/>
<path d="M0 0 C0.66 0.33 1.32 0.66 2 1 C0.125 5.75 0.125 5.75 -1 8 C-1.66 8 -2.32 8 -3 8 C-2.45276317 4.62537285 -1.9451 2.91765 0 0 Z " fill="#3F96E1" transform="translate(34,118)"/>
</svg>
